<svg width="128" height="128" viewBox="0 0 128 128" fill="none" xmlns="http://www.w3.org/2000/svg">
<path d="M66.9998 81C66.9998 82.6569 65.6566 84 63.9998 84C62.3429 84 60.9998 82.6569 60.9998 81C60.9998 79.3431 62.3429 78 63.9998 78C65.6566 78 66.9998 79.3431 66.9998 81Z" fill="black"/>
<path d="M63.9998 62C65.6566 62 66.9998 63.3431 66.9998 65V71C66.9998 72.6569 65.6566 74 63.9998 74C62.3429 74 60.9998 72.6569 60.9998 71V65C60.9998 63.3431 62.3429 62 63.9998 62Z" fill="black"/>
<path fill-rule="evenodd" clip-rule="evenodd" d="M60.7654 12.9464C62.7371 11.6845 65.2625 11.6845 67.2341 12.9464L117.234 44.9464C120.025 46.7326 120.84 50.4433 119.053 53.2343C117.267 56.0254 113.556 56.8399 110.765 55.0536L106 52.0036V100C106 108.837 98.8363 116 89.9998 116H37.9998C29.1632 116 21.9998 108.837 21.9998 100V52.0036L17.2341 55.0536C14.443 56.8399 10.7324 56.0254 8.94614 53.2343C7.15987 50.4433 7.9744 46.7326 10.7654 44.9464L60.7654 12.9464ZM43.2264 84.0846C41.7725 86.7501 43.7017 90 46.738 90H81.2616C84.2979 90 86.2271 86.75 84.7732 84.0845L67.5114 52.4379C65.9953 49.6584 62.0043 49.6584 60.4882 52.4379L43.2264 84.0846Z" fill="black"/>
</svg>
