<svg width="128" height="128" viewBox="0 0 128 128" fill="none" xmlns="http://www.w3.org/2000/svg">
<path fill-rule="evenodd" clip-rule="evenodd" d="M60.7654 12.9464C62.7371 11.6845 65.2625 11.6845 67.2341 12.9464L117.234 44.9464C120.025 46.7326 120.84 50.4433 119.053 53.2343C117.267 56.0254 113.556 56.8399 110.765 55.0536L106 52.0036V100C106 108.837 98.8363 116 89.9998 116H37.9998C29.1632 116 21.9998 108.837 21.9998 100V52.0036L17.2341 55.0536C14.443 56.8399 10.7324 56.0254 8.94614 53.2343C7.15987 50.4433 7.9744 46.7326 10.7654 44.9464L60.7654 12.9464ZM76.1935 74.6693C74.2204 76.8127 72.514 79.4052 72.514 82.3184L72.4998 84C72.4998 85.1046 70.6043 87 69.4998 87V92C69.4998 94.2091 68.7089 96 66.4998 96H62.4998C60.2906 96 59.4998 94.2091 59.4998 92V87C58.3952 87 56.4855 85.1046 56.4855 84V82.3184C56.4855 79.4052 54.7791 76.8126 52.806 74.6693C49.8356 71.4427 47.9998 66.8626 47.9998 62.3587C47.9998 53.324 55.3871 46 64.4998 46C73.6124 46 80.9998 53.324 80.9998 62.3587C80.9998 66.8626 79.1639 71.4427 76.1935 74.6693Z" fill="black"/>
</svg>
