<svg width="128" height="128" viewBox="0 0 128 128" fill="none" xmlns="http://www.w3.org/2000/svg">
<path d="M49.6858 74.0023C49.6873 72.3454 51.0316 71.0011 52.6884 70.9997L61.0121 70.9925L61.0193 62.7082C61.0207 61.0514 62.3651 59.7071 64.0219 59.7056C65.6788 59.7042 67.0207 61.0462 67.0193 62.703L67.0121 70.9872L75.2962 70.98C76.9531 70.9786 78.2951 72.3206 78.2936 73.9774C78.2922 75.6343 76.9479 76.9786 75.291 76.98L67.0069 76.9872L66.9996 85.3108C66.9982 86.9677 65.6539 88.312 63.997 88.3134C62.3402 88.3148 60.9982 86.9729 60.9997 85.316L61.0069 76.9924L52.6832 76.9997C51.0264 77.0011 49.6844 75.6591 49.6858 74.0023Z" fill="black"/>
<path fill-rule="evenodd" clip-rule="evenodd" d="M67.2341 12.9464C65.2625 11.6845 62.7371 11.6845 60.7654 12.9464L10.7654 44.9464C7.9744 46.7326 7.15987 50.4433 8.94614 53.2343C10.7324 56.0254 14.443 56.8399 17.2341 55.0536L21.9998 52.0036V100C21.9998 108.837 29.1632 116 37.9998 116H89.9998C98.8363 116 106 108.837 106 100V52.0036L110.765 55.0536C113.556 56.8399 117.267 56.0254 119.053 53.2343C120.84 50.4433 120.025 46.7326 117.234 44.9464L67.2341 12.9464ZM85.9998 74C85.9998 86.1503 76.15 96 63.9998 96C51.8495 96 41.9998 86.1503 41.9998 74C41.9998 61.8497 51.8495 52 63.9998 52C76.15 52 85.9998 61.8497 85.9998 74Z" fill="black"/>
</svg>
