<svg width="90" height="89" viewBox="0 0 90 89" fill="none" xmlns="http://www.w3.org/2000/svg">
<path fill-rule="evenodd" clip-rule="evenodd" d="M74.2829 18.8144C78.5932 23.5614 79.3423 30.227 77.0919 35.9508C73.2439 45.7383 64.5861 54.6053 56.3733 63.0166C52.3565 67.1304 48.4462 71.1352 45.257 75.0853C44.521 74.3679 43.7599 73.6297 42.979 72.8721C32.4921 62.6994 18.4183 49.0469 13.1555 35.9508C12.3185 33.8681 11.9181 31.638 11.9789 29.3966C12.0397 27.1554 12.5603 24.9497 13.509 22.9146C14.4576 20.8793 15.8145 19.0572 17.4967 17.5592C24.1933 11.5789 34.6764 12.5113 41.0485 18.8306L45.257 23.0043L50.1313 18.1703C51.73 16.5849 53.6378 15.3392 55.738 14.5091C57.8382 13.679 60.0868 13.282 62.3468 13.3423C64.6068 13.4025 66.8308 13.9188 68.8829 14.8597C70.9352 15.8005 72.7726 17.1461 74.2829 18.8144ZM35.8056 46.1492L50.4416 27.2269L47.6264 41.5125H55.9698C56.7357 41.5125 57.1674 42.3922 56.6989 42.9979L42.0629 61.9202L44.8783 47.6346H36.5346C35.7687 47.6346 35.337 46.7549 35.8056 46.1492Z" fill="#FE6767"/>
</svg>
